<?xml version="1.0" encoding="utf-8"?>
<!-- Generator: Adobe Illustrator 28.0.0, SVG Export Plug-In . SVG Version: 6.00 Build 0)  -->
<svg version="1.1" xmlns="http://www.w3.org/2000/svg" xmlns:xlink="http://www.w3.org/1999/xlink" x="0px" y="0px"
	 viewBox="0 0 900 900" style="enable-background:new 0 0 900 900;" xml:space="preserve">
<style type="text/css">
	.st0{display:none;}
	.st1{display:inline;}
	.st2{fill:#FFFFFF;}
</style>
<g id="Layer_1" class="st0">
</g>
<g id="Layer_2">
	<g>
		<g>
			<path class="st2" d="M450,570.69c-70.51,0-137.04-25.02-187.34-70.45c-24.95-22.53-44.59-48.9-58.39-78.36
				c-14.47-30.91-21.81-63.78-21.81-97.69s7.34-66.78,21.81-97.69c13.8-29.46,33.44-55.82,58.39-78.36
				C312.96,102.73,379.49,77.71,450,77.71c46.21,0,91.72,10.57,131.62,30.57c68.69,34.43,116.78,94.17,131.95,163.91l-97.71,21.25
				c-8.71-40.04-37.52-74.95-79.05-95.77c-26.06-13.06-56.08-19.97-86.81-19.97c-92.38,0-167.54,65.72-167.54,146.49
				S357.62,470.69,450,470.69c77.19,0,145.94-49.45,163.47-117.57l96.84,24.92c-13.83,53.75-47.26,102.67-94.13,137.75
				C568.88,551.19,509.86,570.69,450,570.69z"/>
		</g>
		<g>
			<path class="st2" d="M450,177.71v-100c92.96,0,134.08-5.53,148.08-39.77l92.57,37.84c-18.83,46.07-55.22,76.59-108.14,90.71
				C543.56,176.86,499.46,177.71,450,177.71z"/>
		</g>
		<g>
			<path class="st2" d="M450,862.06c-67.91,0-132.42-18.16-181.64-51.13c-25.82-17.29-46.36-37.86-61.07-61.15
				c-16.47-26.08-24.82-54.14-24.82-83.41h100c0,45.26,68.81,95.69,167.54,95.69s167.54-50.43,167.54-95.69
				S548.73,570.69,450,570.69v-100c67.91,0,132.42,18.16,181.64,51.13c25.82,17.29,46.36,37.86,61.07,61.15
				c16.47,26.08,24.82,54.14,24.82,83.41s-8.35,57.33-24.82,83.41c-14.71,23.29-35.26,43.86-61.07,61.15
				C582.41,843.91,517.91,862.06,450,862.06z"/>
		</g>
	</g>
</g>
</svg>
