<?xml version="1.0" encoding="UTF-8"?>
<svg version="1.1" xmlns="http://www.w3.org/2000/svg" width="2230" height="3434">
<path d="M0 0 C4.69231268 0.60324609 8.79126052 1.93924227 13.1328125 3.74609375 C14.17068405 4.16921844 14.17068405 4.16921844 15.22952271 4.60089111 C17.53044655 5.54060452 19.82765788 6.48906762 22.125 7.4375 C23.77417915 8.11295992 25.42359904 8.78783229 27.07324219 9.4621582 C30.58245397 10.89781903 34.09014257 12.33711582 37.59667969 13.77929688 C42.89744285 15.95905442 48.20210153 18.12919327 53.5078125 20.296875 C60.81366672 23.28231243 68.11823546 26.27086753 75.421875 29.26171875 C87.44399077 34.18410362 99.47179857 39.09250897 111.5 44 C127.10697086 50.36815453 142.71173007 56.74166853 158.3125 63.125 C159.21279938 63.49336975 160.11309875 63.8617395 161.04067993 64.24127197 C168.25997278 67.1952403 175.47905184 70.14973094 182.69812012 73.10424805 C189.02781172 75.69474725 195.35759118 78.2850316 201.6875 80.875 C202.58739655 81.24320862 203.48729309 81.61141724 204.41445923 81.99078369 C219.10638393 88.00183928 233.80244349 94.00272949 248.5 100 C264.10690189 106.36832472 279.71163037 112.74191122 295.3125 119.125 C296.65098495 119.67256958 296.65098495 119.67256958 298.01651001 120.23120117 C307.2501373 124.00865593 316.48314195 127.78762032 325.71432495 131.57104492 C328.63082496 132.76621992 331.54757145 133.96079175 334.46435547 135.15527344 C338.2247462 136.69528627 341.98406667 138.23787108 345.74267578 139.78222656 C353.56409498 142.9917204 361.38881151 146.17962862 369.28125 149.2109375 C370.47210205 149.67177734 371.6629541 150.13261719 372.88989258 150.60742188 C375.0094198 151.42215389 377.13394956 152.22405162 379.2644043 153.00976562 C380.6088562 153.52700195 380.6088562 153.52700195 381.98046875 154.0546875 C382.74254639 154.33812012 383.50462402 154.62155273 384.28979492 154.91357422 C386 156 386 156 386.86474609 157.8190918 C387.03941452 160.63554133 386.33647858 162.26525653 385.18359375 164.83984375 C384.7563501 165.80559326 384.32910645 166.77134277 383.88891602 167.76635742 C383.40994873 168.81283447 382.93098145 169.85931152 382.4375 170.9375 C381.69681274 172.58359253 381.69681274 172.58359253 380.94116211 174.26293945 C379.31412544 177.85140453 377.66414847 181.42864386 376 185 C375.57829529 185.90528442 375.57829529 185.90528442 375.14807129 186.82885742 C367.34940315 203.53185024 359.15481267 219.99148272 350 236 C349.53980469 236.80598633 349.07960938 237.61197266 348.60546875 238.44238281 C330.70561954 269.54021943 309.76775487 299.13690837 286.40478516 326.35693359 C284.98400818 328.01870437 283.57497247 329.68983978 282.16796875 331.36328125 C271.53148837 343.96974626 260.19779148 355.87669351 248.5625 367.5625 C247.82950684 368.30016602 247.09651367 369.03783203 246.34130859 369.79785156 C242.29056326 373.83663694 238.1437274 377.70006471 233.81079102 381.43432617 C231.38788923 383.52925257 229.0400901 385.7016897 226.6875 387.875 C222.25503526 391.91279322 217.72257823 395.77307434 213.0546875 399.53515625 C210.8168842 401.34085175 208.59518101 403.15979312 206.3828125 404.99609375 C190.98280699 417.73157082 174.69970625 429.04451895 158 440 C162.17384569 444.23057757 166.47601091 448.31183619 170.8125 452.375 C171.82280273 453.32632813 171.82280273 453.32632813 172.85351562 454.296875 C176.04607044 457.29084985 179.25885959 460.2439576 182.57421875 463.1015625 C195.68557003 474.53335396 207.98411278 486.82501384 220.26416016 499.13378906 C223.02001355 501.89505284 225.78124028 504.6508636 228.54296875 507.40625 C230.32063359 509.18457492 232.09798859 510.96320963 233.875 512.7421875 C234.68864014 513.55380341 235.50228027 514.36541931 236.34057617 515.20162964 C240.55128639 519.42953473 244.61353736 523.7282206 248.49734497 528.25923157 C250.87788061 531.01699114 253.38289308 533.65598616 255.875 536.3125 C260.38862401 541.15869199 264.63843014 546.14987046 268.78515625 551.31640625 C271.12576787 554.15238541 273.5709021 556.85852845 276.0625 559.5625 C279.83107947 563.66683617 283.39142646 567.86073868 286.83203125 572.2421875 C288.41909554 574.26104766 290.0185741 576.26420276 291.63671875 578.2578125 C299.39833767 587.83823041 306.82556055 597.64921879 314.17236328 607.55029297 C315.81734761 609.75517846 317.48026716 611.9445474 319.15234375 614.12890625 C337.21710606 637.92372202 353.75152508 663.31782228 369 689 C369.82467773 690.38203613 369.82467773 690.38203613 370.66601562 691.79199219 C379.50912213 706.6501817 387.89159792 721.73005726 396 737 C396.55655273 738.03930664 397.11310547 739.07861328 397.68652344 740.14941406 C407.29333773 758.11903418 415.90875024 776.43150643 424.14123535 795.0604248 C424.95187797 796.8913133 425.7682406 798.71966612 426.58496094 800.54785156 C483 927.0687622 483 927.0687622 483 977 C462.49308307 981.46679804 441.98594385 985.93257485 421.47868252 990.39779139 C419.00466895 990.93648338 416.53065829 991.47518875 414.05664825 992.01389694 C375.55197908 1000.39810768 337.0462009 1008.777153 298.53528666 1017.1326375 C296.08712392 1017.66380509 293.63896758 1018.1950022 291.19081306 1018.72620773 C276.73019107 1021.86388329 262.26951687 1025.00131797 247.80844116 1028.13690186 C238.41506771 1030.17370209 229.02186126 1032.21127089 219.62890625 1034.25 C218.87050154 1034.41460991 218.11209684 1034.57921983 217.33071017 1034.74881792 C196.60621536 1039.24747425 175.88735311 1043.77103633 155.17592621 1048.32948494 C151.34411632 1049.17280443 147.51218911 1050.01558898 143.68023682 1050.85826111 C133.20207986 1053.16302889 122.72444789 1055.47002245 112.24978924 1057.79064369 C108.15241269 1058.69745332 104.05415374 1059.60022367 99.95565987 1060.50196838 C98.08664786 1060.91421269 96.21804638 1061.3283234 94.34989738 1061.74446106 C91.8323448 1062.3051575 89.31347899 1062.85952281 86.79418945 1063.41235352 C85.70601708 1063.65731615 85.70601708 1063.65731615 84.59586143 1063.90722752 C81.00371749 1064.68830048 77.6785283 1065.18134003 74 1065 C73.79955078 1064.16154541 73.59910156 1063.32309082 73.39257812 1062.45922852 C68.96414821 1044.05137003 64.16062189 1025.91996597 58 1008 C57.64824707 1006.9682666 57.29649414 1005.9365332 56.93408203 1004.87353516 C37.79534732 949.09164993 8.85832189 897.69347656 -27 851 C-27.45971191 850.39994141 -27.91942383 849.79988281 -28.39306641 849.18164062 C-37.80953122 836.92921319 -47.81325674 825.23193771 -58.33203125 813.9140625 C-60.27495046 811.79192819 -62.15023811 809.65215523 -64.015625 807.46484375 C-68.82072292 801.95393801 -74.02001572 796.83062036 -79.19702148 791.67260742 C-80.933936 789.941053 -82.66543889 788.20421641 -84.39648438 786.46679688 C-90.09674106 780.76311839 -95.84880443 775.22124521 -102 770 C-103.60768373 768.54554483 -105.21239715 767.08779105 -106.8125 765.625 C-111.07745308 761.78071755 -115.4486085 758.10473095 -119.9140625 754.49609375 C-122.14939817 752.68801844 -124.37188205 750.86887237 -126.5859375 749.03515625 C-136.77448002 740.62579153 -147.27179103 732.70692482 -158 725 C-158.82048828 724.41041504 -159.64097656 723.82083008 -160.48632812 723.21337891 C-172.38767055 714.6968006 -184.52670242 706.65310801 -197 699 C-197.64211426 698.60506348 -198.28422852 698.21012695 -198.94580078 697.80322266 C-203.26891011 695.15335288 -207.62614261 692.56507198 -212 690 C-212.73283203 689.5678418 -213.46566406 689.13568359 -214.22070312 688.69042969 C-288.1891216 645.21023672 -369.74045129 615.71737631 -550 586 C-551.19705566 585.89558594 -552.39411133 585.79117188 -553.62744141 585.68359375 C-637.16783274 578.60522838 -722.65057885 586.0917212 -939 653 C-940.16305664 653.54237305 -941.32611328 654.08474609 -942.52441406 654.64355469 C-967.71802987 666.45966732 -992.37366875 679.26746196 -1016 694 C-1017.31726074 694.81718506 -1017.31726074 694.81718506 -1018.66113281 695.65087891 C-1039.61218314 708.68304164 -1059.50035613 722.89418367 -1079 738 C-1079.67820801 738.52223145 -1080.35641602 739.04446289 -1081.05517578 739.58251953 C-1092.66996952 748.52738398 -1103.79487805 758.00478723 -1114.64453125 767.86328125 C-1116.23720096 769.30804133 -1117.83906856 770.74271619 -1119.44921875 772.16796875 C-1125.8882149 777.87916628 -1131.95837706 783.87485232 -1138 790 C-1141.04887194 793.0593672 -1144.11257539 796.10347758 -1147.1796875 799.14453125 C-1148.74485315 800.70045899 -1150.3099557 802.2564502 -1151.875 803.8125 C-1152.65230469 804.58142578 -1153.42960937 805.35035156 -1154.23046875 806.14257812 C-1159.03629733 810.92821415 -1163.60032386 815.83996124 -1168 821 C-1168.94993685 822.09425724 -1169.90043061 823.18803133 -1170.8515625 824.28125 C-1204.03752484 862.70616643 -1232.18567641 904.62943341 -1255 950 C-1255.77875488 951.53551514 -1255.77875488 951.53551514 -1256.57324219 953.10205078 C-1292.64539649 1024.57754436 -1312.15154755 1104.93051361 -1313 1185 C-1313.01321289 1186.1950415 -1313.02642578 1187.39008301 -1313.04003906 1188.62133789 C-1313.09862442 1198.91134629 -1312.77448117 1209.16150677 -1312.25 1219.4375 C-1312.20709839 1220.27871399 -1312.16419678 1221.11992798 -1312.11999512 1221.9866333 C-1307.85502404 1303.09921774 -1284.29306578 1380.6315528 -1230 1481 C-1229.23139648 1482.21792236 -1229.23139648 1482.21792236 -1228.44726562 1483.46044922 C-1214.10504136 1506.08076542 -1198.4413394 1527.47413059 -1181.47949219 1548.18408203 C-1180.19680023 1549.75844883 -1178.92904462 1551.34496236 -1177.6640625 1552.93359375 C-1172.76065117 1559.06741499 -1167.533408 1564.82684522 -1162.13500977 1570.52368164 C-1159.29929767 1573.51772269 -1156.52548773 1576.53542969 -1153.84765625 1579.671875 C-1149.22645419 1584.98973099 -1144.21867503 1589.93078921 -1139.23022461 1594.90014648 C-1137.56573723 1596.5592732 -1135.90666553 1598.22368051 -1134.24804688 1599.88867188 C-1128.66971203 1605.47049823 -1123.00544972 1610.87592311 -1117 1616 C-1115.22429779 1617.61967817 -1113.45291693 1619.24411718 -1111.6875 1620.875 C-1106.28529859 1625.79618347 -1100.68770102 1630.41501653 -1095 1635 C-1093.76994984 1636.00934094 -1092.5408379 1637.01982598 -1091.3125 1638.03125 C-1020.49639187 1696.22041463 -937.30647247 1739.51810612 -544.14624023 1798.734375 C-466.66695169 1791.10304674 -390.21268415 1771.96438744 -234 1697 C-233.10087891 1696.46020508 -232.20175781 1695.92041016 -231.27539062 1695.36425781 C-206.12312407 1680.20840489 -181.87812904 1663.41670563 -159 1645 C-158.36352539 1644.48969238 -157.72705078 1643.97938477 -157.07128906 1643.45361328 C-143.50384719 1632.56456586 -130.30309788 1621.35600355 -117.59130859 1609.47802734 C-116.03541921 1608.03289781 -114.46763467 1606.6021344 -112.89453125 1605.17578125 C-106.48532549 1599.35122938 -100.26005312 1593.36309469 -94.125 1587.25 C-93.42342773 1586.55302002 -92.72185547 1585.85604004 -91.99902344 1585.13793945 C-88.05212227 1581.17930832 -84.28974485 1577.11721475 -80.63916016 1572.88427734 C-78.20462728 1570.08568861 -75.66226142 1567.39257423 -73.125 1564.6875 C-68.61768528 1559.84174969 -64.33061802 1554.87503817 -60.1875 1549.7109375 C-57.96233446 1546.95332163 -55.67223453 1544.26023923 -53.375 1541.5625 C-46.22041803 1532.98809401 -39.62564513 1523.98518083 -33 1515 C-32.41750488 1514.21222168 -31.83500977 1513.42444336 -31.23486328 1512.61279297 C12.49289862 1453.33347427 46.19331375 1384.61724249 64 1313 C69.56836763 1313.60096281 74.83565832 1314.57625359 80.25170898 1315.98339844 C81.04142719 1316.18437102 81.8311454 1316.38534361 82.64479446 1316.59240627 C85.26311991 1317.26003269 87.8795886 1317.93465303 90.49609375 1318.609375 C92.36853529 1319.08847684 94.24108122 1319.56717083 96.11372375 1320.04548645 C101.16785923 1321.33783392 106.22036588 1322.63644583 111.27256775 1323.93632889 C115.52653035 1325.02997836 119.78144459 1326.11989925 124.0363636 1327.20982075 C153.26522152 1334.69743651 182.47656763 1342.25244374 211.67868042 1349.84362793 C239.38118729 1357.0449682 267.10696565 1364.15224601 294.84259415 1371.22486496 C324.91897251 1378.89472064 354.97513634 1386.63911684 385.01657104 1394.44467163 C412.99017499 1401.71285012 440.98204595 1408.90437408 469 1416 C468.43810382 1421.18651511 467.59629892 1425.99652866 466.171875 1431.03125 C465.894646 1432.01537369 465.894646 1432.01537369 465.61181641 1433.01937866 C464.99897282 1435.18189059 464.37566221 1437.34116385 463.75 1439.5 C463.53202759 1440.2565387 463.31405518 1441.01307739 463.08947754 1441.7925415 C448.08348116 1493.74644962 429.1575283 1544.12802686 406 1593 C405.46826172 1594.13050781 404.93652344 1595.26101563 404.38867188 1596.42578125 C391.70910274 1623.34179696 377.95827993 1649.68405499 362.66650391 1675.21582031 C361.03135883 1677.94760972 359.41184091 1680.68823254 357.79296875 1683.4296875 C342.32102209 1709.42163142 325.2042158 1734.70631204 307.4375 1759.1875 C306.89432129 1759.93741211 306.35114258 1760.68732422 305.79150391 1761.45996094 C300.98320234 1768.07155211 296.03902429 1774.5625862 291 1781 C290.1314146 1782.11581084 289.26292738 1783.2316981 288.39453125 1784.34765625 C279.12474412 1796.23057312 269.65865102 1807.95732789 259.8762207 1819.42260742 C257.08704504 1822.69517927 254.37287584 1826.01704384 251.6875 1829.375 C247.402493 1834.64826087 242.80695987 1839.59381939 238.13549805 1844.52294922 C235.27515515 1847.54335996 232.4660325 1850.58941224 229.74462891 1853.73608398 C226.13408359 1857.87315601 222.4225018 1861.90306351 218.65625 1865.8984375 C217.96946167 1866.62727142 217.28267334 1867.35610535 216.57507324 1868.10702515 C209.41237028 1875.67281475 202.08336446 1883.06836633 194.70605469 1890.42431641 C192.46951005 1892.65541572 190.238477 1894.89192947 188.0078125 1897.12890625 C186.55761277 1898.57844632 185.10710349 1900.02767679 183.65625 1901.4765625 C183.00402466 1902.13081207 182.35179932 1902.78506165 181.67980957 1903.45913696 C177.83215208 1907.28749574 173.86933576 1910.92544742 169.76208496 1914.47372437 C167.79626358 1916.17647159 165.88776542 1917.93000799 164 1919.71875 C163.34 1920.34136719 162.68 1920.96398438 162 1921.60546875 C161.34 1922.23066406 160.68 1922.85585937 160 1923.5 C154.76747344 1928.45659254 149.45774394 1933.29212198 144 1938 C143.42846191 1938.49371094 142.85692383 1938.98742188 142.26806641 1939.49609375 C138.78730998 1942.4951521 135.29330627 1945.47878094 131.79931641 1948.46240234 C130.6391774 1949.45379386 129.47992905 1950.44622904 128.32177734 1951.43994141 C115.90769875 1962.09072024 102.98346201 1972.05751497 90 1982 C94.28268185 1985.66597567 98.90490184 1988.4147558 103.75 1991.25 C123.04345185 2002.70055609 141.74627932 2014.96162808 160 2028 C161.22607928 2028.86787057 162.45260614 2029.73510935 163.6796875 2030.6015625 C167.13505929 2033.04675863 170.5710354 2035.51793868 174 2038 C174.72010254 2038.52029785 175.44020508 2039.0405957 176.18212891 2039.57666016 C186.09743983 2046.75785568 195.78695524 2054.13152948 205.234375 2061.91796875 C208.79215242 2064.84720549 212.41935791 2067.6782451 216.0625 2070.5 C222.98267596 2075.88683392 229.5739948 2081.6220035 236.16503906 2087.40332031 C237.91742861 2088.92815103 239.68452193 2090.43295858 241.4609375 2091.9296875 C253.42633072 2102.01912869 264.96961642 2112.65126601 275.84765625 2123.91015625 C277.76086658 2125.76781057 279.72497954 2127.4896705 281.75 2129.22265625 C286.11140514 2133.01222263 290.02483923 2137.13019971 293.9375 2141.375 C298.24734573 2146.00752395 302.55267588 2150.62241543 307.0625 2155.0625 C310.2666528 2158.2242538 313.26520497 2161.49785418 316.1953125 2164.9140625 C318.21651276 2167.25025501 320.29378839 2169.52964851 322.375 2171.8125 C326.26924618 2176.12774576 329.96654724 2180.57091755 333.62109375 2185.08984375 C335.72954837 2187.66915195 337.8733109 2190.20959676 340.03930664 2192.74023438 C345.47170007 2199.0917808 350.65651026 2205.58982124 355.68896484 2212.26367188 C357.05361208 2214.07100356 358.42694872 2215.87151814 359.80078125 2217.671875 C387.97077176 2254.73690769 411.91430324 2294.5351942 433 2336 C433.44956055 2336.88155762 433.89912109 2337.76311523 434.36230469 2338.67138672 C470.56421224 2410.28353668 492.10057955 2491.06918878 498 2571 C498.08685059 2572.10166504 498.17370117 2573.20333008 498.26318359 2574.33837891 C499.26915833 2588.79226731 499.24714933 2603.2671997 499.25 2617.75 C499.25029457 2618.43727676 499.25058914 2619.12455353 499.25089264 2619.83265686 C499.2524479 2642.34868676 498.74065181 2664.6335196 496 2687 C495.90289734 2687.80709412 495.80579468 2688.61418823 495.70574951 2689.44573975 C485.15688736 2776.63335097 457.64409777 2861.05949347 330.43701172 3055.30859375 C329.00600998 3056.99292607 327.58262965 3058.6834628 326.16015625 3060.375 C319.03881046 3068.80833117 311.58836156 3076.8872652 303.99267578 3084.89404297 C301.93420082 3087.06953978 299.88582484 3089.25415845 297.83984375 3091.44140625 C279.22806597 3111.3281126 279.22806597 3111.3281126 269.99609375 3119.22265625 C267.73867374 3121.23268777 265.62264287 3123.34832953 263.5 3125.5 C260.16879193 3128.87100065 256.74888372 3132.0451403 253.15234375 3135.12890625 C250.61947838 3137.33079829 248.15667478 3139.60195826 245.6875 3141.875 C241.22611655 3145.94417391 236.64055282 3149.79977816 231.94140625 3153.58984375 C229.22317287 3155.81713458 226.55914381 3158.09256532 223.90454102 3160.39453125 C217.92888186 3165.57578599 211.85020119 3170.53060062 205.54296875 3175.3046875 C202.9000818 3177.30524296 200.28350061 3179.33662394 197.67578125 3181.3828125 C189.18278312 3188.04661925 180.62820783 3194.55617621 171.78369141 3200.74609375 C169.9146574 3202.05999447 168.05625101 3203.38794717 166.19921875 3204.71875 C125.39054399 3233.88554908 82.27119392 3259.4846417 38 3283 C36.96327148 3283.55333008 35.92654297 3284.10666016 34.85839844 3284.67675781 C19.58292096 3292.81497516 4.07266202 3300.3024577 -11.67626953 3307.47851562 C-14.73893157 3308.88049226 -17.79117142 3310.30228822 -20.83984375 3311.734375 C-104.62936837 3350.95438748 -194.13624777 3378.78503152 -509.9375 3431.25 C-511.16092102 3431.33308411 -512.38434204 3431.41616821 -513.64483643 3431.50177002 C-517.20950894 3431.74096178 -520.77453394 3431.97364181 -524.33984375 3432.203125 C-525.34892288 3432.26956207 -526.35800201 3432.33599915 -527.3976593 3432.40444946 C-547.11607674 3433.63567143 -566.83569315 3434.16351096 -586.58984375 3434.203125 C-588.77317319 3434.21010891 -590.95650245 3434.21714982 -593.13983154 3434.22424316 C-600.07239033 3434.2434945 -607.00491739 3434.2484189 -613.9375 3434.25 C-615.11901768 3434.25058914 -616.30053535 3434.25117828 -617.5178566 3434.25178528 C-653.10725748 3434.26430657 -688.5309857 3433.93949827 -724.03265381 3431.22460938 C-727.00764277 3430.99942149 -729.9833032 3430.78708606 -732.95947266 3430.578125 C-835.85464491 3423.28550972 -938.56426018 3405.22094965 -1246 3295 C-1246.7645752 3294.62601074 -1247.52915039 3294.25202148 -1248.31689453 3293.86669922 C-1252.07182219 3292.02696165 -1255.80895215 3290.15499498 -1259.53417969 3288.25585938 C-1261.4499441 3287.28014728 -1263.36765111 3286.30824898 -1265.28613281 3285.33789062 C-1281.81626218 3276.97323683 -1298.07330443 3268.32513864 -1313.97509766 3258.80371094 C-1317.17504007 3256.89562582 -1320.38864866 3255.01229238 -1323.60546875 3253.1328125 C-1344.57092246 3240.85547408 -1365.12395589 3227.97847403 -1385 3214 C-1386.36052986 3213.05057025 -1387.72121132 3212.1013577 -1389.08203125 3211.15234375 C-1404.72330457 3200.21125582 -1420.08654926 3188.91558151 -1435 3177 C-1435.88945313 3176.29359375 -1436.77890625 3175.5871875 -1437.6953125 3174.859375 C-1451.00188806 3164.26417064 -1464.15906324 3153.47595936 -1476.75 3142.03515625 C-1478.74989375 3140.22622457 -1480.77269432 3138.45108199 -1482.8125 3136.6875 C-1491.14043103 3129.42163304 -1499.19924824 3121.88254777 -1506.95703125 3114.01171875 C-1508.91045479 3112.08817549 -1510.92042089 3110.28541468 -1513 3108.5 C-1519.56310213 3102.85025204 -1525.49173284 3096.66742083 -1531.12109375 3090.09765625 C-1533.32627296 3087.635741 -1535.64886677 3085.3227636 -1538 3083 C-1541.57083512 3079.46686601 -1544.96551225 3075.86626905 -1548.23046875 3072.05078125 C-1550.23786023 3069.72433417 -1552.30466638 3067.45807314 -1554.375 3065.1875 C-1558.26924618 3060.87225424 -1561.96654724 3056.42908245 -1565.62109375 3051.91015625 C-1567.72954837 3049.33084805 -1569.8733109 3046.79040324 -1572.03930664 3044.25976562 C-1577.47170007 3037.9082192 -1582.65651026 3031.41017876 -1587.68896484 3024.73632812 C-1589.05361208 3022.92899644 -1590.42694872 3021.12848186 -1591.80078125 3019.328125 C-1617.20861602 2985.89743478 -1639.66515202 2950.26352519 -1659 2913 C-1659.51369141 2912.01644531 -1660.02738281 2911.03289063 -1660.55664062 2910.01953125 C-1693.48717773 2846.69482703 -1715.30593251 2777.54377569 -1725.375 2706.9375 C-1725.49660492 2706.08697052 -1725.61820984 2705.23644104 -1725.74349976 2704.36013794 C-1727.5448987 2691.60814188 -1728.89203945 2678.83001007 -1730 2666 C-1730.1134375 2664.68781494 -1730.226875 2663.37562988 -1730.34375 2662.02368164 C-1731.40473447 2647.31633708 -1731 2632.82812746 -1731 2618 C-1593.39 2618 -1455.78 2618 -1314 2618 C-1313.3082721 2621.45863948 -1312.83776519 2624.39922477 -1312.640625 2627.859375 C-1308.88330353 2685.92570957 -1283.19226594 2737.07721122 -1246 2781 C-1245.15606689 2782.01312256 -1244.31213379 2783.02624512 -1243.44262695 2784.07006836 C-1236.4382937 2792.42080451 -1229.04067634 2800.27269781 -1221.30883789 2807.9519043 C-1219.42811472 2809.82183141 -1217.55843181 2811.70232638 -1215.68945312 2813.58398438 C-1209.4766336 2819.80323539 -1203.21403196 2825.7195742 -1196.30151367 2831.16381836 C-1194.07008797 2832.94408278 -1191.96795105 2834.81006687 -1189.875 2836.75 C-1182.95662259 2842.95691306 -1175.43265591 2848.43166603 -1168 2854 C-1167.21173828 2854.59184082 -1166.42347656 2855.18368164 -1165.61132812 2855.79345703 C-1155.28467614 2863.5300708 -1144.86601641 2871.03907165 -1134 2878 C-1132.72310303 2878.82105225 -1132.72310303 2878.82105225 -1131.42041016 2879.65869141 C-1057.88101982 2926.77046295 -976.31650768 2959.57459815 -839 2994 C-838.24108459 2994.1589978 -837.48216919 2994.31799561 -836.70025635 2994.48181152 C-781.59455323 3005.96831503 -725.21944763 3012.51655925 -669 3015 C-667.78812012 3015.05639648 -666.57624023 3015.11279297 -665.32763672 3015.17089844 C-569.97313001 3019.45279338 -473.92542999 3011.44599119 -60 2851 C-59.36755371 2850.51772949 -58.73510742 2850.03545898 -58.08349609 2849.53857422 C-40.44365734 2836.04491101 -24.10617848 2821.16790037 -8.35443115 2805.52966309 C-7.30212218 2804.48540045 -6.24833779 2803.44262206 -5.19293213 2802.40148926 C1.68585795 2795.60593362 7.97717893 2788.58154962 14 2781 C14.863289 2779.97236657 15.73167897 2778.94894986 16.609375 2777.93359375 C57.77964361 2729.92665645 84.45515635 2668.14685282 80.5390625 2604.2421875 C75.98441769 2545.28996294 46.34912739 2492.75441982 8 2449 C7.23429687 2448.12214844 6.46859375 2447.24429688 5.6796875 2446.33984375 C-0.85279334 2439.04068911 -7.77381652 2432.12218693 -14.6875 2425.1875 C-15.18495728 2424.68736389 -15.68241455 2424.18722778 -16.19494629 2423.67193604 C-21.94889318 2417.89452589 -27.77602617 2412.27244986 -34 2407 C-35.0096499 2406.12301175 -36.01879867 2405.24544608 -37.02734375 2404.3671875 C-45.04510438 2397.50097102 -53.31367536 2391.02333568 -61.75537109 2384.68701172 C-63.23785191 2383.57281306 -64.71741172 2382.454716 -66.19384766 2381.33251953 C-92.63002676 2361.2429004 -121.00284705 2344.0984799 -150.25976562 2328.46630859 C-152.05540224 2327.50545743 -153.84847976 2326.53980492 -155.63867188 2325.56884766 C-183.10659958 2310.67592105 -211.7922606 2298.06012748 -241 2287 C-242.00912445 2286.61678589 -242.00912445 2286.61678589 -243.03863525 2286.22583008 C-325.13441532 2255.10735002 -411.44468458 2235.71234689 -579.03515625 2221.47265625 C-579.71417244 2221.4514056 -580.39318863 2221.43015495 -581.09278107 2221.40826035 C-593.82160901 2221.01465806 -606.54873906 2220.83890569 -619.28295898 2220.7097168 C-710.13389498 2219.78241496 -800.39646867 2210.57213442 -1199.23291016 2069.58056641 C-1201.88221807 2068.06727724 -1204.53907893 2066.56836685 -1207.19921875 2065.07421875 C-1230.82384749 2051.76844523 -1253.56457923 2037.19865145 -1276 2022 C-1276.90395508 2021.38995117 -1277.80791016 2020.77990234 -1278.73925781 2020.15136719 C-1297.63600715 2007.3918999 -1315.94849072 1993.92715782 -1334 1980 C-1334.66515625 1979.48695312 -1335.3303125 1978.97390625 -1336.015625 1978.4453125 C-1350.12056615 1967.53508025 -1363.81039436 1956.11499669 -1377.30273438 1944.45898438 C-1379.01204674 1942.98964452 -1380.73095199 1941.53236128 -1382.453125 1940.078125 C-1390.50144749 1933.26748476 -1398.24895128 1926.18768861 -1405.91040039 1918.94604492 C-1407.39371401 1917.56463437 -1408.89193532 1916.1991544 -1410.40014648 1914.8449707 C-1419.9367878 1906.25651027 -1428.97514903 1897.17613536 -1438.0378418 1888.0925293 C-1440.8203186 1885.30466626 -1443.6081351 1882.52222258 -1446.39648438 1879.74023438 C-1448.18782092 1877.94823741 -1449.97884744 1876.15593047 -1451.76953125 1874.36328125 C-1453.0041082 1873.13174065 -1453.0041082 1873.13174065 -1454.2636261 1871.87532043 C-1458.4942821 1867.62760215 -1462.57967141 1863.31263276 -1466.47969055 1858.75842285 C-1469.02178155 1855.81818532 -1471.70828345 1853.01422771 -1474.375 1850.1875 C-1479.08153274 1845.16311299 -1483.52858064 1840.01016609 -1487.83203125 1834.6328125 C-1490.09032463 1831.89030846 -1492.45781334 1829.2906241 -1494.875 1826.6875 C-1499.03806682 1822.15936424 -1502.86214306 1817.46486729 -1506.61938477 1812.60302734 C-1509.68640579 1808.64307614 -1512.83567555 1804.76741758 -1516.0480957 1800.92456055 C-1524.12960113 1791.25068432 -1531.6175311 1781.21308573 -1539 1771 C-1540.09199821 1769.49967258 -1541.18443855 1767.99966685 -1542.27734375 1766.5 C-1545.53956414 1762.01518704 -1548.77432706 1757.51114914 -1552 1753 C-1552.82685303 1751.84709473 -1552.82685303 1751.84709473 -1553.67041016 1750.67089844 C-1575.50210995 1720.15563533 -1595.01009947 1687.91081691 -1613 1655 C-1613.89235352 1653.37771484 -1613.89235352 1653.37771484 -1614.80273438 1651.72265625 C-1644.13163822 1598.30103968 -1667.83975966 1542.16299121 -1686.32867432 1484.10388184 C-1686.97825567 1482.06814502 -1687.63363409 1480.03436405 -1688.29052734 1478.00097656 C-1708.87183446 1414.09144185 -1721.8980871 1347.26716424 -1727.78710938 1280.40509033 C-1728.00335903 1277.96205203 -1728.22827873 1275.51989719 -1728.453125 1273.07763672 C-1730.81930229 1246.81016796 -1731.28848607 1220.56627226 -1731.31007385 1194.21026611 C-1731.31245293 1191.73644206 -1731.3177624 1189.26263694 -1731.32336426 1186.78881836 C-1731.37148941 1157.76829419 -1730.16442961 1128.88515954 -1727.25 1100 C-1727.16763092 1099.16922943 -1727.08526184 1098.33845886 -1727.00039673 1097.48251343 C-1718.96113393 1017.09646802 -1700.50712738 938.1446907 -1599.52832031 706.56445312 C-1598.13386549 704.2246203 -1596.76044216 701.87445147 -1595.3984375 699.515625 C-1570.43049294 656.32701368 -1541.09140486 615.28460392 -1509.43994141 576.75585938 C-1508.15634299 575.19064408 -1506.88036928 573.619183 -1505.60546875 572.046875 C-1497.34508934 561.86651552 -1488.81083487 551.92249574 -1480 542.21484375 C-1478.20396471 540.22587498 -1476.44046697 538.21436806 -1474.6875 536.1875 C-1467.94826945 528.45859224 -1461.0039201 520.87912838 -1453.67407227 513.70654297 C-1452.02594273 512.02644593 -1450.5069209 510.28630977 -1448.984375 508.4921875 C-1444.70723718 503.57772969 -1440.12657172 498.97590291 -1435.51196289 494.3815918 C-1434.06475615 492.93974779 -1432.62297974 491.49262884 -1431.18164062 490.04492188 C-1426.48378626 485.34404891 -1421.7207685 480.78102111 -1416.67358398 476.45532227 C-1414.5071517 474.57142689 -1412.49848796 472.5599799 -1410.5 470.5 C-1407.19013302 467.15066271 -1403.79253051 464.00074044 -1400.21875 460.9375 C-1398.01639006 459.01431244 -1395.86759359 457.0396947 -1393.72460938 455.05078125 C-1388.61772762 450.3137753 -1383.39833743 445.80613357 -1377.96875 441.4375 C-1374.47718068 438.57073782 -1371.08476528 435.60221766 -1367.6875 432.625 C-1361.77329355 427.45933252 -1355.71471628 422.53832862 -1349.5078125 417.73046875 C-1346.54111213 415.43230893 -1343.61678333 413.08605893 -1340.69995117 410.72509766 C-1331.7827987 403.51741401 -1322.64398416 396.61890904 -1313.42871094 389.79785156 C-1311.91172961 388.67490721 -1310.39645985 387.54964263 -1308.88378906 386.42089844 C-1293.60287624 375.0329268 -1277.63016159 364.63113552 -1261.7277832 354.14056396 C-1260.2503299 353.16525063 -1258.7744204 352.18759935 -1257.29882812 351.20947266 C-1236.13791036 337.19059728 -1214.22493731 324.24954054 -1192 312 C-1190.58702637 311.22027832 -1190.58702637 311.22027832 -1189.14550781 310.42480469 C-1115.30993863 269.7990113 -1037.39218461 236.75991213 -578.53335571 164.53668213 C-561.85281796 164.47847615 -545.17249123 164.37778156 -528.4921875 164.2734375 C-527.67859308 164.26841012 -526.86499865 164.26338275 -526.02674985 164.25820303 C-489.33419714 164.03058958 -452.66581107 163.48012216 -416 162 C-414.69611328 161.94779297 -413.39222656 161.89558594 -412.04882812 161.84179688 C-318.07270899 158.02387329 -220.32822709 151.56030846 -40 64 C-36.83158672 60.4542716 -33.90629346 56.7616919 -31 53 C-30.21109375 52.03835937 -29.4221875 51.07671875 -28.609375 50.0859375 C-16.41890009 34.94368093 -8.04480879 17.59818435 0 0 Z " fill="#FFFFFF" transform="translate(1731,0)"/>
</svg>
